<?xml version="1.0" encoding="UTF-8" ?>
<!DOCTYPE svg PUBLIC "-//W3C//DTD SVG 1.1//EN" "http://www.w3.org/Graphics/SVG/1.1/DTD/svg11.dtd">
<svg width="1200pt" height="600pt" viewBox="0 0 1200 600" version="1.1" xmlns="http://www.w3.org/2000/svg">
<g>
<path fill="#e80023" d=" M 128.17 165.15 C 130.35 164.76 130.51 167.39 131.23 168.82 C 140.00 197.06 152.86 224.17 170.37 248.07 C 168.48 250.30 166.56 252.49 164.75 254.78 C 170.41 251.37 175.75 247.36 181.96 244.94 C 190.27 241.61 199.27 239.04 208.30 239.92 C 201.96 242.91 195.56 246.63 191.70 252.69 C 189.60 255.85 188.12 259.39 187.14 263.05 C 180.80 260.26 173.81 259.36 166.96 260.33 C 168.46 265.18 171.30 269.76 171.03 275.00 C 171.04 287.39 160.45 298.78 148.02 299.37 C 142.55 299.95 137.19 298.19 132.66 295.21 C 133.75 293.79 134.89 292.42 136.08 291.09 C 142.94 293.03 151.46 294.72 157.18 289.24 C 144.47 293.01 131.08 288.67 119.93 282.42 C 124.95 281.84 130.01 281.78 135.05 281.66 C 114.55 277.73 96.16 266.40 81.16 252.17 C 87.52 252.78 93.70 254.62 100.09 254.92 C 82.94 248.06 67.33 236.84 56.12 222.08 C 59.73 223.09 63.30 224.28 66.97 225.06 C 54.19 216.73 43.26 205.44 36.12 191.91 C 35.56 190.70 35.35 189.38 35.05 188.09 C 36.96 188.04 38.87 188.39 40.44 189.55 C 67.94 207.98 97.51 223.18 127.96 236.09 C 130.54 237.24 133.19 238.25 135.90 239.09 C 133.58 237.11 130.11 235.90 129.31 232.67 C 127.55 226.49 126.24 220.13 125.92 213.70 C 129.20 216.15 131.92 219.24 135.06 221.86 C 132.00 216.41 127.77 211.62 125.34 205.83 C 124.44 200.94 124.96 195.92 125.15 191.00 C 126.75 192.97 128.33 194.97 129.95 196.93 C 128.22 192.07 124.67 187.51 125.55 182.06 C 126.20 176.41 126.28 170.57 128.17 165.15 Z" />
</g>
<g>
<path fill="#a7181d" d=" M 208.30 239.92 C 211.42 239.72 214.57 240.37 217.38 241.75 C 214.31 253.61 204.80 263.38 192.81 266.23 C 190.78 266.46 188.73 266.54 186.69 266.64 C 186.81 265.44 186.96 264.24 187.14 263.05 C 188.12 259.39 189.60 255.85 191.70 252.69 C 195.56 246.63 201.96 242.91 208.30 239.92 Z" />
</g>
<g>
<path fill="#b64198" d=" M 217.38 241.75 C 224.71 244.42 230.08 250.86 233.18 257.84 C 235.56 262.99 236.07 268.72 237.96 274.03 C 239.34 277.95 241.82 281.34 244.37 284.58 C 249.66 291.33 254.68 298.30 259.88 305.13 C 261.43 307.25 263.37 309.42 263.21 312.25 C 260.75 312.73 259.43 310.50 258.24 308.79 C 252.74 300.45 246.88 292.28 239.88 285.13 C 234.14 279.32 226.34 274.96 217.99 275.23 C 212.80 275.16 207.98 277.26 203.19 278.96 C 200.23 274.33 196.70 270.11 192.81 266.23 C 204.80 263.38 214.31 253.61 217.38 241.75 M 218.39 254.44 C 214.06 256.86 220.63 264.74 223.84 260.70 C 224.43 257.62 221.53 254.06 218.39 254.44 Z" />
</g>
<g>
<path fill="#003092" d=" M 468.06 243.06 C 496.70 242.83 525.35 243.04 554.00 242.96 C 570.95 242.92 588.26 243.94 604.37 249.65 C 615.47 253.63 625.69 261.09 631.19 271.71 C 639.14 286.61 639.43 304.08 638.45 320.54 C 637.17 336.63 630.87 353.65 616.82 362.80 C 599.81 373.85 578.76 375.51 559.01 375.91 C 528.70 376.05 498.38 376.04 468.07 375.95 C 467.99 331.66 467.88 287.35 468.06 243.06 M 504.29 262.32 C 504.15 293.58 504.18 324.86 504.09 356.13 C 519.05 356.62 534.03 356.16 549.00 356.34 C 557.33 356.53 565.84 355.83 573.60 352.59 C 582.61 348.98 589.96 341.58 593.61 332.61 C 598.23 322.23 598.50 310.56 597.43 299.44 C 596.24 289.57 593.08 279.33 585.59 272.40 C 577.72 264.98 566.52 262.83 556.07 262.39 C 538.81 262.36 521.55 262.33 504.29 262.32 Z" />
<path fill="#003092" d=" M 319.31 253.32 C 320.42 251.06 321.68 248.89 323.07 246.79 C 337.04 246.42 351.02 246.79 365.00 246.66 C 370.79 246.76 376.81 246.58 382.30 248.72 C 386.66 250.42 389.34 254.52 391.55 258.43 C 411.11 293.52 430.70 328.60 450.26 363.70 C 452.35 367.38 454.57 371.00 456.21 374.91 C 442.15 375.24 428.08 374.89 414.01 375.07 C 411.14 375.14 408.28 375.04 405.44 374.66 C 400.87 366.56 396.54 358.31 391.70 350.37 C 359.21 350.09 326.71 350.25 294.22 350.29 C 289.39 358.26 285.37 366.70 280.73 374.79 C 271.87 375.62 262.95 374.90 254.07 374.92 C 275.60 334.28 297.64 293.90 319.31 253.32 M 336.17 267.91 C 325.37 288.16 314.95 308.61 304.20 328.89 C 330.51 329.08 356.83 329.07 383.15 328.90 C 374.17 310.73 364.27 293.02 355.05 274.97 C 353.56 272.30 352.11 268.93 348.85 268.11 C 344.68 267.24 340.38 267.53 336.17 267.91 Z" />
<path fill="#003092" d=" M 698.51 269.43 C 702.76 261.92 706.39 254.04 711.00 246.74 C 725.33 246.49 739.67 246.76 754.00 246.66 C 759.69 246.80 765.69 246.65 770.97 249.10 C 775.58 251.38 778.07 256.15 780.50 260.43 C 801.02 297.28 821.59 334.09 842.15 370.92 C 842.84 372.22 843.46 373.56 844.10 374.90 C 833.07 375.22 822.03 374.94 811.00 375.03 C 805.12 374.91 799.22 375.41 793.37 374.70 C 788.71 366.64 784.39 358.38 779.61 350.39 C 747.14 350.03 714.65 350.30 682.18 350.26 C 677.20 358.15 673.23 366.62 668.64 374.74 C 659.78 375.69 650.84 374.84 641.95 374.95 C 660.46 339.60 679.71 304.63 698.51 269.43 M 724.11 267.86 C 713.19 288.06 702.70 308.51 692.14 328.90 C 718.43 329.09 744.74 329.02 771.04 328.93 C 761.88 310.58 751.90 292.64 742.57 274.36 C 741.20 271.91 739.81 268.87 736.82 268.13 C 732.64 267.22 728.33 267.57 724.11 267.86 Z" />
<path fill="#003092" d=" M 1031.15 246.87 C 1046.74 246.37 1062.36 246.76 1077.97 246.72 C 1085.55 246.62 1094.39 248.38 1098.14 255.80 C 1120.55 295.39 1142.44 335.28 1164.80 374.90 C 1147.90 375.13 1130.99 375.10 1114.10 374.93 C 1108.93 366.95 1104.93 358.27 1099.78 350.29 C 1067.28 350.24 1034.78 350.10 1002.30 350.37 C 997.54 358.41 993.51 366.86 988.81 374.94 C 979.94 375.46 971.05 374.97 962.18 374.92 C 985.11 332.20 1007.99 289.46 1031.15 246.87 M 1038.70 273.69 C 1029.30 292.17 1019.36 310.38 1010.06 328.91 C 1036.35 329.06 1062.65 329.07 1088.95 328.91 C 1079.75 310.67 1069.91 292.76 1060.54 274.60 C 1059.04 271.87 1057.43 268.39 1053.95 267.95 C 1050.06 267.41 1046.07 267.39 1042.18 267.92 C 1040.58 269.54 1039.74 271.71 1038.70 273.69 Z" />
<path fill="#003092" d=" M 815.83 248.01 C 840.21 247.53 864.61 248.09 889.00 247.96 C 922.28 248.06 955.58 247.78 988.86 248.10 C 988.99 255.62 989.23 263.16 988.77 270.67 C 969.85 270.52 950.93 270.67 932.01 270.57 C 929.66 270.74 926.91 270.40 925.03 272.08 C 923.14 274.60 923.37 277.96 923.27 280.94 C 923.38 305.96 923.24 330.98 923.23 356.00 C 923.10 362.23 923.62 368.48 922.88 374.68 C 909.63 374.65 896.37 374.63 883.12 374.69 C 882.38 368.48 882.89 362.23 882.77 356.00 C 882.63 327.44 882.75 298.88 882.67 270.33 C 860.39 270.17 838.09 270.61 815.82 270.13 C 815.48 262.76 815.46 255.37 815.83 248.01 Z" />
</g>
<g>
<path fill="#00a1ec" d=" M 166.96 260.33 C 173.81 259.36 180.80 260.26 187.14 263.05 C 186.96 264.24 186.81 265.44 186.69 266.64 C 185.46 273.50 187.66 280.23 190.56 286.37 C 190.85 287.00 191.15 287.64 191.58 288.20 C 193.21 290.05 195.06 291.69 196.91 293.32 C 192.93 299.90 188.19 306.23 182.28 311.20 C 169.22 306.62 154.27 305.77 141.41 311.44 C 129.32 316.63 120.42 327.40 115.15 339.22 C 117.15 323.43 123.28 308.09 132.66 295.21 C 137.19 298.19 142.55 299.95 148.02 299.37 C 160.45 298.78 171.04 287.39 171.03 275.00 C 171.30 269.76 168.46 265.18 166.96 260.33 Z" />
</g>
<g>
<path fill="#3b5aab" d=" M 186.69 266.64 C 188.73 266.54 190.78 266.46 192.81 266.23 C 196.70 270.11 200.23 274.33 203.19 278.96 C 199.00 281.47 195.07 284.45 190.56 286.37 C 187.66 280.23 185.46 273.50 186.69 266.64 Z" />
</g>
<g>
<path fill="#3b5aab" d=" M 191.58 288.20 C 194.69 285.48 198.47 283.74 202.26 282.19 C 201.19 286.21 199.22 289.89 196.91 293.32 C 195.06 291.69 193.21 290.05 191.58 288.20 Z" />
</g>
<g>
<path fill="#00a91d" d=" M 141.41 311.44 C 154.27 305.77 169.22 306.62 182.28 311.20 C 178.76 315.71 174.13 319.15 169.67 322.66 C 159.83 329.97 148.43 336.20 135.89 336.52 C 139.26 337.54 142.78 337.83 146.27 338.09 C 146.16 338.49 145.94 339.28 145.83 339.68 C 138.39 347.06 128.47 352.13 117.84 352.28 C 116.47 351.87 115.11 351.47 113.74 351.07 C 113.99 347.10 114.12 343.08 115.15 339.22 C 120.42 327.40 129.32 316.63 141.41 311.44 Z" />
</g>
<g>
<path fill="#f1e900" d=" M 117.84 352.28 C 128.47 352.13 138.39 347.06 145.83 339.68 C 146.94 348.12 147.45 356.92 151.42 364.64 C 153.83 369.62 157.91 373.45 161.07 377.92 C 155.09 378.21 149.56 375.74 144.89 372.19 C 146.82 376.60 149.83 380.38 152.95 384.00 C 148.18 384.52 142.43 384.27 139.47 379.85 C 135.98 368.48 128.51 357.90 117.84 352.28 Z" />
</g>
<g>
<path fill="#ff7b00" d=" M 113.74 351.07 C 115.11 351.47 116.47 351.87 117.84 352.28 C 128.51 357.90 135.98 368.48 139.47 379.85 C 139.03 384.88 140.82 389.60 142.64 394.18 C 133.89 391.06 127.59 383.55 124.19 375.11 C 124.64 380.17 125.90 385.10 126.76 390.09 C 126.45 394.12 124.93 397.98 124.52 402.03 C 116.17 386.54 112.55 368.61 113.74 351.07 Z" />
<path fill="#ff7b00" d=" M 156.75 384.71 C 159.46 385.60 162.01 386.95 164.23 388.76 C 167.05 391.25 170.98 391.46 174.25 393.10 C 172.98 393.92 171.61 394.56 170.23 395.18 C 173.35 399.15 175.67 403.75 176.06 408.86 C 173.52 405.79 171.01 402.44 167.18 400.93 C 164.45 403.53 161.11 405.47 157.24 405.42 C 157.82 403.01 158.28 400.58 158.42 398.11 C 154.96 396.54 151.20 395.23 148.61 392.30 C 151.68 392.13 154.75 392.01 157.81 391.75 C 157.46 389.40 157.07 387.05 156.75 384.71 Z" />
<path fill="#ff7b00" d=" M 131.86 396.95 C 134.64 399.30 136.90 402.34 140.13 404.13 C 143.29 404.84 146.35 403.15 149.33 402.31 C 148.56 404.90 147.53 407.41 146.84 410.03 C 147.88 413.42 152.24 413.49 155.05 414.59 C 150.53 418.25 144.40 417.43 139.09 416.47 C 139.33 418.33 139.57 420.19 139.78 422.06 C 136.10 420.65 134.44 417.13 133.57 413.54 C 131.38 412.65 129.29 411.52 127.54 409.93 C 129.20 409.01 130.94 408.27 132.71 407.60 C 132.11 404.08 131.59 400.52 131.86 396.95 Z" />
<path fill="#ff7b00" d=" M 160.19 407.98 C 162.92 408.45 164.94 410.35 167.16 411.84 C 168.95 411.67 170.21 409.96 171.72 409.06 C 171.55 411.65 171.40 414.24 171.22 416.83 C 173.13 418.70 174.90 420.72 176.28 423.01 C 174.02 422.57 171.78 422.07 169.51 421.66 C 169.83 425.47 172.84 428.03 174.88 431.00 C 172.44 430.39 169.71 429.98 167.94 428.03 C 166.35 426.23 165.16 424.14 163.83 422.16 C 162.22 422.66 160.61 423.17 159.00 423.66 C 159.63 420.48 161.47 417.78 162.76 414.87 C 162.38 412.42 161.04 410.27 160.19 407.98 Z" />
<path fill="#ff7b00" d=" M 181.06 420.28 C 183.94 421.94 187.02 423.53 190.46 423.29 C 190.04 424.39 189.62 425.49 189.21 426.60 C 190.86 427.48 192.52 428.34 194.15 429.25 C 192.76 430.07 191.18 430.44 189.62 430.79 C 189.03 431.53 188.45 432.28 187.87 433.04 C 187.03 431.89 186.22 430.75 185.42 429.60 C 183.66 429.32 181.90 429.05 180.14 428.77 C 181.44 427.75 182.74 426.73 184.04 425.72 C 183.15 423.85 182.16 422.03 181.06 420.28 Z" />
</g>
</svg>